<?xml version="1.0" encoding="UTF-8"?>
<svg id="Vrstva_2" data-name="Vrstva 2" xmlns="http://www.w3.org/2000/svg" viewBox="0 0 383.1 383.2">
  <defs>
    <style>
      .cls-1 {
        fill: #0777bb;
      }

      .cls-2 {
        fill: #010102;
      }

      .cls-3 {
        fill: #36a3dc;
      }

      .cls-4 {
        fill: #ffdc04;
      }

      .cls-5 {
        fill: #bba109;
      }
    </style>
  </defs>
  <g id="Vrstva_1-2" data-name="Vrstva 1">
    <path class="cls-2" d="m139.17,0c2,1.25,4.35,1.28,6.51,1.42,13.05.81,25.78,3.36,38.35,6.77,13.25,3.6,25.86,8.65,37.29,16.48,10.16,6.95,18.21,15.41,20.77,27.91.54,2.65.58,5.43.58,8.15.03,54.74.06,109.48-.06,164.21,0,3.71.65,4.95,4.72,4.93,38.53-.18,77.05-.16,115.58-.07,8.37.02,14.79,3.77,18.47,11.49,1.21,2.53,1.73,5.31,1.73,8.16-.01,38.03,0,76.06,0,114.09,0,11.32-9.71,19.69-19.79,19.67-59.6-.16-119.19-.14-178.79-.02-9.56.02-18.49-8.49-18.46-18,.03-10.97-.1-21.94-.02-32.92.02-3.09-.15-4.29-4.06-3.37-6.25,1.47-12.75,2.08-19.18,2.53-10.39.73-20.81,1.14-31.22.76-11.13-.41-22.17-1.63-33.17-3.56-12.4-2.17-24.44-5.37-36.17-9.9-10.81-4.17-20.7-9.88-29.37-17.5-6.27-5.52-10.34-12.64-12.86-20.62C0,204.28,0,127.96,0,51.63c.91-2.31,1.72-4.67,2.75-6.92,5.47-11.91,15.39-19.28,26.48-25.23C49.38,8.69,71.23,3.82,93.77,1.32c2.63-.29,5.54.3,7.99-1.32h37.41Zm49.39,142.91h-.02c.37.01.79.11,1.12,0,9.83-3.59,19.46-7.61,27.71-14.22,7.47-5.98,12.74-13.01,12.48-23.42-.38-15.44-.09-30.89-.11-46.34,0-1.36-.05-2.74-.3-4.07-1.35-7.32-5.85-12.58-11.48-16.98-8.8-6.87-18.55-11.92-29.41-14.71l.04.03c-.29-.83-.89-.85-1.6-.62-15.58-5.77-31.89-8.2-48.31-8.86-9.56-.38-19.13-1.33-28.85-.5-11.74.99-23.46,1.77-35.04,3.99-18.4,3.53-36.01,9.21-50.92,21.03-6.7,5.31-11.45,11.89-11.23,21.33.35,15.45.35,30.92,0,46.36-.2,8.54,3.4,15.08,9.37,20.32,9.48,8.32,20.74,13.54,32.7,17.44,11.27,3.67,22.72,6.28,34.51,7.58,7.93.88,15.8,2.23,23.82,1.97,5.21,0,10.42,0,15.64,0,8.35.19,16.58-.96,24.82-2.04,11.18-1.47,22.22-3.52,32.85-7.43.78-.2,1.79.21,2.23-.86Zm-35.23,136.28c-.98,0-2.01-.2-2.94,0-7.39,1.64-14.98,1.08-22.42,2.1-3.99-.9-7.99-.88-11.98.01-3.85.52-7.58-.75-11.43-.81-6.14-.09-12.33-.51-18.38-1.5-9.22-1.51-18.44-3.21-27.39-5.92-10.14-3.08-20.1-6.6-29.47-11.77-5.79-3.19-10.85-7.34-16.58-11.36,0,8.26.1,16.08-.03,23.89-.09,5.48,2.04,9.98,5.44,14.03,4.71,5.61,10.48,9.81,16.88,13.37,12.46,6.93,25.88,10.94,39.74,13.71,7.2,1.44,14.41,2.67,21.77,3.25,5.5.44,11,.71,16.5,1.09,5.22,0,10.43,0,15.65,0,1.23.07,2.47.31,3.67.18,7.02-.72,14.03-1.53,21.04-2.31,3.01-.46,6.01-.97,9.02-1.36,2.45-.32,3.81-1.07,3.75-4.08-.22-10.21-.26-20.42.01-30.63.1-3.64-1.62-3.83-4.21-3.43-2.88.45-5.74,1.02-8.61,1.53Zm17.08-42.81c4.22-4.31,9.32-6.56,15.36-6.6,10.4-.06,20.8-.1,31.2-.14,2.98.04,5.97-.11,8.93.18,3.02.29,4.02-.55,3.94-3.77-.24-9.56-.08-19.12-.08-28.68,0-1.52,0-3.05,0-5.38-4.35,4.28-8.86,6.76-12.83,9.98-3.74.99-6.61,3.67-10.12,5.14-11.12,4.67-22.5,8.5-34.27,11.15-14.66,3.3-29.53,4.98-44.5,5.32-7.63.17-15.31.17-22.99-.46-10.39-.85-20.72-1.86-30.95-3.89-13.4-2.65-26.43-6.5-38.83-12.28-8.05-3.75-15.47-8.55-22.48-14.72,0,11.5,0,22.45,0,33.4,0,1.77.74,3.3,1.47,4.84,4.53,9.63,12.73,15.36,21.69,20.2,12.23,6.61,25.43,10.53,38.94,13.4,9.57,2.03,19.28,3.46,29.05,3.73,16.49.46,33,.72,49.42-1.54.94-.21,1.87-.53,2.82-.61,9.89-.86,9.98-.85,9.86-10.83-.07-6.55-.3-13.05,4.38-18.44Zm46.53-92.02c-7.07,3.59-14.1,7.23-21.63,9.84-11.91,4.12-24.03,7.2-36.52,9.05-10.36,1.53-20.71,2.77-31.18,2.86-6.61.06-13.22.08-19.83-.02-3.94-.06-7.97-.32-11.77-.93-7.45-1.2-14.97-1.87-22.38-3.46-12.53-2.69-24.78-6.11-36.44-11.44-8.68-3.97-16.99-8.61-24.45-15.73,0,10.91.04,21.09-.02,31.28-.03,5.35,2.24,9.76,5.56,13.66,7.01,8.25,16.07,13.59,25.9,17.76,11.22,4.75,22.93,7.8,34.88,10.13,6.75,1.32,13.59,1.65,20.36,2.76,4.45.73,9.07.45,13.61.62h15.63c.73.09,1.47.32,2.18.26,11.28-1.09,22.64-1.61,33.75-3.97,7.86-1.67,15.86-2.99,23.25-6.39.81-.18,1.86.27,2.3-.88.18,0,.36-.04.52-.11,10.77-3,20.45-8.16,28.87-15.44,4.35-3.76,8.45-8.04,9.43-14.1,1.87-11.53.23-23.12.89-35.11-4.67,3.39-8.79,6.39-12.91,9.38Zm139.28,98.76c-1.09-1.29-2.56-.65-3.84-.65-54.93-.04-109.87-.04-164.8-.02-1.45,0-3.01-.4-4.31.68-3.28,1-4.49,3.21-4.49,6.62.06,37.39.04,74.79.04,112.18,0,6.65,1.81,8.43,8.55,8.43,57.95,0,115.91-.02,173.86-.03,7.01,0,9.07-2.07,9.07-9.09,0-36.52,0-73.04,0-109.56,0-.87.07-1.75-.04-2.62-.49-4.11-2.42-5.8-6.59-5.85-2.49-.03-4.98-.06-7.47-.09Z"/>
    <path class="cls-4" d="m356.22,243.13c2.49.03,4.98.07,7.47.09,4.17.05,6.1,1.74,6.59,5.85.1.86.04,1.74.04,2.62,0,36.52,0,73.04,0,109.56,0,7.02-2.07,9.09-9.07,9.09-57.95.01-115.91.02-173.86.03-6.75,0-8.55-1.78-8.55-8.43,0-37.39.02-74.79-.04-112.18,0-3.41,1.21-5.62,4.49-6.62,9.09.02,18.17.05,27.26.04,48.56-.02,97.12-.04,145.68-.06Zm-17.41,88.61l-.1-.1c.07-.49.21-.98.21-1.48.02-17.96.02-35.91.02-53.87,0-.87.1-1.76-.61-2.46-1.89-4.9-3.95-6.29-8.67-5.12-2.98.74-4.14,3.22-4.14,6.21,0,21.05-.03,42.1.02,63.16,0,4.03,2.79,6.77,6.73,6.81,5.85.06,11.71.1,17.56-.01,3.18-.06,6.36-.67,7.1-4.49.61-3.16.58-5.97-4.52-8.23-4.51-1.32-9.08-.56-13.63-.42Zm-120.33-50.4c3.34.04,6.7.24,10.03.07,3.15-.16,6.41.88,9.46-.69,3.4-1.38,5-3.9,4.4-7.52-.51-3.08-3.59-5.1-7.59-5.13-4.6-.04-9.21.09-13.81-.03-14.41-.35-25.97,13.41-22.75,27.14,2.09,8.88,9.86,16.88,19.93,17.65,2.27.17,4.61.36,6.72,1.46,3.6,1.87,4.95,5.15,4.76,8.83-.24,4.47-2.95,7.3-7.31,8.46-6.28.16-12.6-.78-18.85.53-3.44.81-6.15,3.76-5.94,6.47.27,3.58,3.3,6.28,7.22,6.32,5.23.05,10.46.14,15.68-.03,6.85-.22,12.83-2.78,17.06-8.23,5.42-6.98,6.54-14.85,3.11-23.07-3.84-9.18-11.41-12.92-20.88-13.5-4.52-.28-9.18-4.6-9.47-9.03-.29-4.43,3.51-8.92,8.22-9.71Zm88.14,26.04c0-4.9.16-8.89-.03-12.87-.39-8.15-3.18-15.16-9.71-20.5-5.46-4.46-11.66-5.57-18.49-5.43-12.05.25-22.38,11.23-22.97,23.04-.47,9.32-.05,18.69-.14,28.03-.15,16.82,18.37,32.09,37.03,22.27,3.68-1.94,5.95-3.24,9.16.8,2.5,3.15,6.93,2.69,9.44.15,2.63-2.66,2.49-6.15-.47-9.56-1.22-1.41-2.56-2.73-3.96-3.96-1.07-.93-1.53-2.04-1.13-3.3,2.05-6.43,1.01-13.05,1.29-18.67Z"/>
    <path class="cls-3" d="m113.02,153.24c-8.02.26-15.89-1.09-23.82-1.97-11.78-1.31-23.24-3.92-34.51-7.58-11.95-3.89-23.22-9.11-32.7-17.44-5.97-5.24-9.57-11.78-9.37-20.32.36-15.45.36-30.92,0-46.36-.21-9.43,4.53-16.01,11.23-21.33,14.91-11.82,32.52-17.49,50.92-21.03,11.58-2.22,23.31-3,35.04-3.99,9.72-.82,19.29.12,28.85.5,16.42.66,32.72,3.09,48.31,8.86.4.54.96.68,1.6.62,0,0-.04-.03-.04-.03.41,1.22,1.57,1.54,2.55,2.02,6.89,3.4,12.84,8.04,18.01,13.68,5.05,5.51,7.97,11.83,7.92,19.5-.12,15.57-.44,31.15.1,46.7.43,12.43-5.56,20.92-14.51,28.27-4.42,3.63-9.69,5.95-14.08,9.59,0,0,.02-.01.02-.01-.87-.05-1.74-.09-2.23.86-10.63,3.91-21.67,5.95-32.85,7.43-8.24,1.09-16.48,2.24-24.82,2.04-5.21-.89-10.42-.95-15.64,0Zm21.58-51.59c3.13.24,5.42-.33,7.73-.53,13.2-1.11,26.04-3.84,38.43-8.4,9.67-3.56,18.96-7.89,25.54-16.47,4.91-6.41,5.45-16.78,1.02-23.49-3.94-5.95-9.53-9.89-15.69-13.05-12.13-6.23-25.15-9.46-38.62-11.39-13.68-1.96-27.28-3.01-41.15-2.31-15.26.76-30.27,2.62-44.85,7.03-11.2,3.38-22.09,7.77-29.83,17.18-6.83,8.3-7.2,15.11-2.22,24.16,3.95,7.17,10.58,11.22,17.5,14.58,19.81,9.63,41.23,12.27,62.88,13.48,6.66.37,13.39.39,19.26-.8Z"/>
    <path class="cls-3" d="m187.83,200.63c-7.4,3.4-15.4,4.73-23.25,6.39-11.1,2.36-22.47,2.88-33.75,3.97-.71.07-1.45-.17-2.18-.26-5.21-.81-10.42-.89-15.63,0-4.54-.17-9.16.11-13.61-.62-6.76-1.11-13.61-1.45-20.36-2.76-11.95-2.33-23.65-5.38-34.88-10.13-9.84-4.17-18.89-9.51-25.9-17.76-3.32-3.9-5.59-8.31-5.56-13.66.06-10.18.02-20.37.02-31.28,7.46,7.13,15.77,11.76,24.45,15.73,11.66,5.34,23.91,8.75,36.44,11.44,7.41,1.59,14.93,2.26,22.38,3.46,3.81.62,7.83.87,11.77.93,6.61.1,13.22.07,19.83.02,10.47-.09,20.82-1.33,31.18-2.86,12.49-1.84,24.61-4.92,36.52-9.05,7.53-2.61,14.57-6.25,21.63-9.84.02,7.69.02,15.38.05,23.08,0,2.39-.62,4.65-1.47,6.84-4.02,10.42-12.27,16.79-21.38,22.35-1.32.81-3.16,1.03-3.5,3-.17.08-.34.11-.52.11-.88,0-1.82-.15-2.3.88Z"/>
    <path class="cls-3" d="m153.35,266.26c-16.42,2.27-32.93,2-49.42,1.54-9.77-.27-19.48-1.7-29.05-3.73-13.51-2.87-26.71-6.79-38.94-13.4-8.96-4.84-17.16-10.57-21.69-20.2-.72-1.54-1.47-3.08-1.47-4.84,0-10.95,0-21.89,0-33.4,7,6.18,14.43,10.97,22.48,14.72,12.4,5.78,25.43,9.62,38.83,12.28,10.23,2.03,20.56,3.04,30.95,3.89,7.68.63,15.36.63,22.99.46,14.96-.34,29.84-2.02,44.5-5.32,11.78-2.65,23.16-6.48,34.27-11.15,3.51-1.47,6.38-4.15,10.12-5.14.02,9.22.03,18.45.05,27.67-10.4.05-20.8.08-31.2.14-6.04.03-11.15,2.29-15.36,6.6-1.24.02-2.48.05-3.72.05-8.31.05-13.28,5.07-13.31,13.45-.02,5.46-.02,10.92-.03,16.38Z"/>
    <path class="cls-3" d="m127.96,281.29c7.44-1.02,15.03-.46,22.42-2.1.94-.21,1.96-.01,2.94,0,.01,12.65.03,25.31.04,37.96-7.01.78-14.02,1.59-21.04,2.31-1.21.12-2.45-.11-3.67-.18-5.22-.85-10.43-.92-15.65,0-5.5-.37-11-.65-16.5-1.09-7.36-.58-14.57-1.81-21.77-3.25-13.85-2.78-27.28-6.78-39.74-13.71-6.39-3.56-12.17-7.75-16.88-13.37-3.4-4.06-5.53-8.56-5.44-14.03.13-7.81.03-15.62.03-23.89,5.73,4.02,10.79,8.17,16.58,11.36,9.37,5.17,19.33,8.69,29.47,11.77,8.95,2.72,18.18,4.41,27.39,5.92,6.05.99,12.24,1.41,18.38,1.5,3.85.06,7.57,1.32,11.43.81,3.99,0,7.98,0,11.98-.01Z"/>
    <path class="cls-1" d="m188.54,142.92c4.39-3.63,9.66-5.96,14.08-9.59,8.96-7.35,14.94-15.84,14.51-28.27-.53-15.55-.21-31.13-.1-46.7.06-7.67-2.86-13.99-7.92-19.5-5.18-5.64-11.12-10.28-18.01-13.68-.98-.48-2.14-.8-2.55-2.02,10.86,2.79,20.61,7.84,29.41,14.71,5.63,4.4,10.13,9.66,11.48,16.98.25,1.33.29,2.71.3,4.07.02,15.45-.27,30.9.11,46.34.25,10.41-5.01,17.43-12.48,23.42-8.25,6.61-17.88,10.63-27.71,14.22-.33.12-.74.02-1.12.02Z"/>
    <path class="cls-1" d="m190.65,199.64c.33-1.97,2.17-2.19,3.5-3,9.11-5.56,17.36-11.94,21.38-22.35.85-2.2,1.47-4.45,1.47-6.84-.03-7.69-.04-15.38-.05-23.08,4.12-2.99,8.24-5.99,12.91-9.38-.66,11.99.98,23.58-.89,35.11-.98,6.06-5.09,10.34-9.43,14.1-8.42,7.29-18.1,12.44-28.87,15.44Z"/>
    <path class="cls-1" d="m153.37,317.15c-.01-12.65-.03-25.31-.04-37.96,2.87-.52,5.73-1.09,8.61-1.53,2.59-.4,4.31-.21,4.21,3.43-.27,10.2-.23,20.42-.01,30.63.06,3.01-1.3,3.76-3.75,4.08-3.01.39-6.01.9-9.02,1.36Z"/>
    <path class="cls-1" d="m216.97,229.64c-.02-9.22-.03-18.45-.05-27.67,3.97-3.21,8.48-5.69,12.83-9.98,0,2.33,0,3.85,0,5.38,0,9.56-.15,19.13.08,28.68.08,3.22-.93,4.06-3.94,3.77-2.95-.29-5.95-.14-8.93-.18Z"/>
    <path class="cls-1" d="m153.35,266.26c0-5.46.01-10.92.03-16.38.02-8.38,5-13.4,13.31-13.45,1.24,0,2.48-.03,3.72-.05-4.68,5.38-4.45,11.89-4.38,18.44.11,9.98.03,9.97-9.86,10.83-.95.08-1.88.4-2.82.61Z"/>
    <path class="cls-5" d="m356.22,243.13c-48.56.02-97.12.05-145.68.06-9.09,0-18.17-.03-27.26-.04,1.3-1.09,2.86-.68,4.31-.68,54.93-.02,109.87-.02,164.8.02,1.27,0,2.75-.64,3.84.65Z"/>
    <path class="cls-1" d="m113.02,153.24c5.21-.95,10.42-.89,15.64,0-5.21,0-10.42,0-15.64,0Z"/>
    <path class="cls-1" d="m113.02,210.74c5.21-.9,10.42-.82,15.63,0-5.21,0-10.42,0-15.63,0Z"/>
    <path class="cls-1" d="m113.01,319.29c5.22-.93,10.43-.86,15.65,0-5.22,0-10.43,0-15.65,0Z"/>
    <path class="cls-1" d="m127.96,281.29c-3.99,0-7.99,0-11.98.01,3.99-.89,7.98-.91,11.98-.01Z"/>
    <path class="cls-1" d="m186.33,143.76c.49-.95,1.36-.91,2.23-.86-.44,1.07-1.45.66-2.23.86Z"/>
    <path class="cls-1" d="m187.83,200.63c.48-1.03,1.42-.89,2.3-.88-.43,1.16-1.49.7-2.3.88Z"/>
    <path class="cls-1" d="m188.59,23.19c-.64.06-1.19-.08-1.6-.62.7-.23,1.31-.21,1.6.62Z"/>
    <path class="cls-2" d="m306.61,307.38c-.28,5.62.76,12.24-1.29,18.67-.4,1.26.06,2.36,1.13,3.3,1.4,1.22,2.74,2.55,3.96,3.96,2.97,3.42,3.1,6.9.47,9.56-2.51,2.54-6.93,3-9.44-.15-3.21-4.04-5.48-2.74-9.16-.8-18.66,9.82-37.18-5.45-37.03-22.27.08-9.35-.33-18.71.14-28.03.59-11.81,10.93-22.79,22.97-23.04,6.84-.14,13.04.98,18.49,5.43,6.53,5.34,9.33,12.35,9.71,20.5.19,3.98.03,7.97.03,12.87Zm-38.09,13.76c1.1,9.49,10.21,13.5,19.35,8.41-1.87-2.3-4.2-4.14-5.9-6.62-1.62-2.37-1.49-4.32-.21-6.73,1.26-2.38,3.09-2.59,5.45-2.75,2.58-.17,4.27,1.45,6.37,2.22.03.07.06.14.09.22-.05-.07-.11-.13-.16-.2,0-.47.02-.93.03-1.4.44-7.25.85-14.49-.21-21.72-1.05-9.5-9.43-13.04-17.24-10.69-4.89,1.47-7.85,6.23-7.51,10.67-1.36,3.33-.58,6.8-.54,10.18.08,6.14-.78,12.31.48,18.41Z"/>
    <path class="cls-2" d="m222.33,331.58c4.35-1.17,7.07-4,7.31-8.46.2-3.68-1.16-6.96-4.76-8.83-2.12-1.1-4.45-1.29-6.72-1.46-10.07-.77-17.85-8.77-19.93-17.65-3.23-13.73,8.34-27.5,22.75-27.14,4.6.11,9.21-.02,13.81.03,4.01.04,7.08,2.05,7.59,5.13.6,3.63-1,6.15-4.4,7.52-6.49.41-13.03-.64-19.49.62-4.71.79-8.51,5.29-8.22,9.71.29,4.43,4.95,8.75,9.47,9.03,9.47.58,17.04,4.32,20.88,13.5,3.43,8.21,2.31,16.09-3.11,23.07-4.23,5.45-10.2,8.01-17.06,8.23-5.22.17-10.46.07-15.68.03-3.92-.03-6.95-2.74-7.22-6.32-.21-2.72,2.5-5.66,5.94-6.47,6.28-.1,12.6.87,18.85-.53Z"/>
    <path class="cls-2" d="m352.44,332.15c5.1,2.26,5.13,5.07,4.52,8.23-.74,3.82-3.93,4.43-7.1,4.49-5.85.12-11.71.08-17.56.01-3.94-.04-6.72-2.78-6.73-6.81-.05-21.05-.02-42.1-.02-63.16,0-2.99,1.15-5.47,4.14-6.21,4.72-1.17,6.78.22,8.67,5.12-.04,18.82-.09,37.64-.11,56.46,0,.45.31.9.48,1.34,0,0,.1.1.1.1,4.51,1.07,9.09.33,13.63.42Z"/>
    <path class="cls-5" d="m338.71,331.64c-.17-.45-.48-.9-.48-1.34.02-18.82.06-37.64.11-56.46.7.7.61,1.59.61,2.46,0,17.96,0,35.91-.02,53.87,0,.49-.14.98-.21,1.48Z"/>
    <path class="cls-5" d="m218.48,281.34c6.46-1.25,13-.21,19.49-.62-3.05,1.56-6.31.53-9.46.69-3.33.17-6.69-.03-10.03-.07Z"/>
    <path class="cls-5" d="m222.33,331.58c-6.25,1.4-12.56.43-18.85.53,6.25-1.31,12.56-.37,18.85-.53Z"/>
    <path class="cls-5" d="m352.44,332.15c-4.54-.09-9.12.64-13.63-.42,4.55-.14,9.12-.9,13.63.42Z"/>
    <path class="cls-2" d="m134.59,101.65c-5.88,1.19-12.6,1.18-19.26.8-21.65-1.21-43.07-3.85-62.88-13.48-6.92-3.36-13.55-7.41-17.5-14.58-4.98-9.05-4.61-15.86,2.22-24.16,7.74-9.41,18.63-13.8,29.83-17.18,14.59-4.4,29.59-6.27,44.85-7.03,13.87-.69,27.47.35,41.15,2.31,13.47,1.93,26.48,5.16,38.62,11.39,6.16,3.16,11.75,7.1,15.69,13.05,4.44,6.71,3.9,17.08-1.02,23.49-6.58,8.58-15.86,12.91-25.54,16.47-12.39,4.56-25.24,7.29-38.43,8.4-2.31.19-4.6.77-7.73.53Zm-13.02-12.5c13.32.38,26.96-.69,40.3-3.97,10.96-2.7,21.82-5.8,30.8-13.25,6.6-5.47,6.5-11.49-.31-16.74-5.65-4.35-12.05-7.29-18.75-9.37-16.15-5.02-32.81-7.14-49.67-7.46-13.89-.26-27.73.89-41.34,3.69-11.2,2.31-22.15,5.6-31.56,12.52-7.27,5.35-8.43,10.86-2.87,16.24,4.91,4.75,11.16,7.62,17.55,10,17.89,6.66,36.49,8.69,55.84,8.34Z"/>
    <path class="cls-4" d="m268.58,292.54c-.33-4.44,2.63-9.2,7.51-10.67,7.82-2.35,16.2,1.19,17.24,10.69-.07,7.24-.47,14.49.21,21.72,0,.47-.02.93-.03,1.4,0,0,.07-.02.07-.02-2.1-.77-3.78-2.4-6.37-2.22-2.36.16-4.19.37-5.45,2.75-1.27,2.41-1.41,4.36.21,6.73,1.69,2.48,4.03,4.31,5.9,6.62-9.14,5.09-18.26,1.08-19.35-8.41.02-9.53.04-19.06.06-28.6Z"/>
    <path class="cls-5" d="m268.58,292.54c-.02,9.53-.04,19.06-.06,28.6-1.26-6.1-.4-12.28-.48-18.41-.04-3.38-.82-6.86.54-10.18Z"/>
    <path class="cls-5" d="m293.54,314.28c-.68-7.24-.28-14.48-.21-21.72,1.05,7.23.65,14.48.21,21.72Z"/>
    <path class="cls-5" d="m293.58,315.66s-.07.02-.07.02c.05.07.11.13.16.2-.03-.07-.06-.14-.09-.22Z"/>
    <path class="cls-1" d="m121.58,89.15c-19.36.35-37.96-1.67-55.84-8.34-6.39-2.38-12.64-5.25-17.55-10-5.56-5.38-4.41-10.89,2.87-16.24,9.41-6.92,20.37-10.21,31.56-12.52,13.61-2.8,27.45-3.95,41.34-3.69,16.86.32,33.52,2.44,49.67,7.46,6.7,2.08,13.1,5.02,18.75,9.37,6.82,5.25,6.91,11.27.31,16.74-8.98,7.45-19.85,10.55-30.8,13.25-13.35,3.28-26.98,4.35-40.3,3.97Z"/>
  </g>
</svg>